<?xml version="1.0" encoding="utf-8"?><!-- Uploaded to: SVG Repo, www.svgrepo.com, Generator: SVG Repo Mixer Tools -->
<svg viewBox="0 0 24 24" fill="none" xmlns="http://www.w3.org/2000/svg">
<path class="outer-element" d="M2 12C2 7.28595 2 4.92893 3.46447 3.46447C4.92893 2 7.28595 2 12 2C16.714 2 19.0711 2 20.5355 3.46447C22 4.92893 22 7.28595 22 12C22 16.714 22 19.0711 20.5355 20.5355C19.0711 22 16.714 22 12 22C7.28595 22 4.92893 22 3.46447 20.5355C2 19.0711 2 16.714 2 12Z" stroke="transparent" stroke-width="1.5"/>

<path class="nav-back" d="M15.5 9L12.5 12L15.5 15" stroke="transparent" stroke-width="1.5" stroke-linecap="round" stroke-linejoin="round"/>
<path class="nav-back" d="M11.5 9L8.5 12L11.5 15" stroke="transparent" stroke-width="1.5" stroke-linecap="round" stroke-linejoin="round"/>

<path class="nav-list" d="M5.5 10H11.5" stroke="transparent" stroke-width="1.5" stroke-linecap="round"/>
<path class="nav-list" d="M6.5 14H10.5" stroke="transparent" stroke-width="1.5" stroke-linecap="round"/>
<path class="nav-list" d="M15 21L15 3" stroke="transparent" stroke-width="1.5" stroke-linecap="round"/>
</svg>